<svg width="20" height="18" viewBox="0 0 20 18" fill="none" xmlns="http://www.w3.org/2000/svg">
<path fill-rule="evenodd" clip-rule="evenodd" d="M19.636 15.5824C19.2224 16.69 17.2187 17.7599 16.3138 17.8354C15.4089 17.9109 15.4089 18.5529 10.4062 16.6523C5.40346 14.7517 2.24929 9.79249 2.00367 9.47783C1.75806 9.15057 0 6.89754 0 4.5564C0 2.21527 1.26684 1.06987 1.71928 0.591577C2.17173 0.113281 2.70173 0 3.03783 0C3.361 0 3.6971 0.0377603 3.9815 0.0377603C4.26589 0.0377603 4.67955 -0.125868 5.09321 0.830726C5.50688 1.78732 6.48932 4.12845 6.60566 4.35502C6.73493 4.59416 6.8125 4.87107 6.64445 5.18574C6.4764 5.50041 6.39883 5.7018 6.15322 5.97871C5.90761 6.25562 5.63614 6.59546 5.41639 6.80943C5.17077 7.04858 4.91224 7.30032 5.19663 7.77861C5.48102 8.25691 6.46347 9.81767 7.93714 11.0763C9.81154 12.6874 11.4016 13.1909 11.8928 13.4301C12.384 13.6692 12.6684 13.6315 12.9528 13.3168C13.2372 13.0021 14.1808 11.9322 14.5169 11.4539C14.8401 10.9756 15.1762 11.0638 15.6287 11.2148C16.0811 11.3784 18.4984 12.5238 18.9897 12.763C19.4809 13.0021 19.8041 13.1154 19.9333 13.3168C20.0497 13.5182 20.0497 14.4622 19.636 15.5824Z" fill="white"/>
</svg>
