<svg width="21" height="20" viewBox="0 0 21 20" fill="none" xmlns="http://www.w3.org/2000/svg">
<path fill-rule="evenodd" clip-rule="evenodd" d="M0 0V2H2L5.6 9.59L4.25 12.03C3.52 13.37 4.48 15 6 15H18V13H6L7.1 11H14.55C15.3 11 15.96 10.59 16.3 9.97L19.88 3.48C20.25 2.82 19.77 2 19.01 2H4.21L3.27 0H0ZM6.00001 16C4.90001 16 4.01001 16.9 4.01001 18C4.01001 19.1 4.90001 20 6.00001 20C7.10001 20 8.00001 19.1 8.00001 18C8.00001 16.9 7.10001 16 6.00001 16ZM14.01 18C14.01 16.9 14.9 16 16 16C17.1 16 18 16.9 18 18C18 19.1 17.1 20 16 20C14.9 20 14.01 19.1 14.01 18Z" fill="#178041"/>
</svg>
