<svg width="18" height="16" viewBox="0 0 18 16" fill="none" xmlns="http://www.w3.org/2000/svg">
<path fill-rule="evenodd" clip-rule="evenodd" d="M17.4542 13.851C17.0865 14.8356 15.3055 15.7866 14.5012 15.8537C13.6968 15.9208 13.6968 16.4914 9.24994 14.802C4.80308 13.1126 1.99937 8.70444 1.78104 8.42473C1.56272 8.13384 0 6.13115 0 4.05014C0 1.96913 1.12608 0.950999 1.52825 0.525847C1.93042 0.100694 2.40154 0 2.70029 0C2.98756 0 3.28631 0.0335647 3.53911 0.0335647C3.7919 0.0335647 4.1596 -0.111882 4.5273 0.738423C4.895 1.58873 5.76829 3.66974 5.8717 3.87113C5.98661 4.0837 6.05555 4.32984 5.90617 4.60955C5.7568 4.88925 5.68785 5.06827 5.46953 5.31441C5.25121 5.56055 5.00991 5.86263 4.81457 6.05283C4.59624 6.26541 4.36643 6.48917 4.61923 6.91432C4.87202 7.33948 5.74531 8.72682 7.05524 9.84564C8.72137 11.2777 10.1347 11.7253 10.5714 11.9378C11.008 12.1504 11.2608 12.1168 11.5136 11.8371C11.7664 11.5574 12.6052 10.6064 12.904 10.1813C13.1912 9.75613 13.49 9.83445 13.8921 9.96871C14.2943 10.1142 16.4431 11.1323 16.8797 11.3449C17.3164 11.5574 17.6036 11.6581 17.7185 11.8371C17.8219 12.0162 17.8219 12.8553 17.4542 13.851Z" fill="#828282"/>
</svg>
