<svg width="20" height="20" viewBox="0 0 20 20" fill="none" xmlns="http://www.w3.org/2000/svg">
<path d="M13.75 0H6.25C2.79688 0 0 2.79688 0 6.25V13.75C0 17.2031 2.79688 20 6.25 20H13.75C17.2031 20 20 17.2031 20 13.75V6.25C20 2.79688 17.2031 0 13.75 0ZM18.125 13.75C18.125 16.1641 16.1641 18.125 13.75 18.125H6.25C3.83594 18.125 1.875 16.1641 1.875 13.75V6.25C1.875 3.83594 3.83594 1.875 6.25 1.875H13.75C16.1641 1.875 18.125 3.83594 18.125 6.25V13.75Z" fill="white"/>
<path d="M10 5C7.23828 5 5 7.23828 5 10C5 12.7617 7.23828 15 10 15C12.7617 15 15 12.7617 15 10C15 7.23828 12.7617 5 10 5ZM10 13.125C8.27734 13.125 6.875 11.7227 6.875 10C6.875 8.27734 8.27734 6.875 10 6.875C11.7227 6.875 13.125 8.27734 13.125 10C13.125 11.7227 11.7227 13.125 10 13.125Z" fill="white"/>
<path d="M15.375 5.29297C15.7439 5.29297 16.043 4.99391 16.043 4.625C16.043 4.25609 15.7439 3.95703 15.375 3.95703C15.0061 3.95703 14.707 4.25609 14.707 4.625C14.707 4.99391 15.0061 5.29297 15.375 5.29297Z" fill="white"/>
</svg>
