<svg width="11" height="20" viewBox="0 0 11 20" fill="none" xmlns="http://www.w3.org/2000/svg">
<path d="M10.2697 0H7.70231C4.82678 0 2.97823 1.92458 2.97823 4.91547V7.17815H0.41079C0.179721 7.17815 0 7.36021 0 7.59428V10.8713C0 11.1053 0.179721 11.2874 0.41079 11.2874H2.97823V19.5839C2.97823 19.8179 3.15795 20 3.38902 20H6.75236C6.98343 20 7.16315 19.8179 7.16315 19.5839V11.2874H10.1671C10.3981 11.2874 10.5778 11.1053 10.5778 10.8713V7.59428C10.5778 7.49025 10.5265 7.38622 10.4495 7.30819C10.3724 7.23017 10.2697 7.17815 10.1671 7.17815H7.13747V5.25358C7.13747 4.3173 7.34287 3.84915 8.54957 3.84915H10.2697C10.5008 3.84915 10.6805 3.6671 10.6805 3.43303V0.416125C10.6805 0.182055 10.5008 0 10.2697 0Z" fill="white"/>
</svg>
