<svg width="16" height="16" viewBox="0 0 16 16" fill="none" xmlns="http://www.w3.org/2000/svg">
<path d="M8 0C3.5875 0 0 3.5875 0 8C0 12.4125 3.5875 16 8 16C12.4125 16 16 12.4125 16 8C16 3.5875 12.4125 0 8 0ZM11.2344 10.7656L10.7625 11.2375C10.6312 11.3688 10.4219 11.3688 10.2906 11.2375L7.525 8.47188C7.4 8.34688 7.33125 8.17813 7.33125 8V2.66563C7.33125 2.48125 7.48125 2.33125 7.66563 2.33125H8.33125C8.51562 2.33125 8.66562 2.48125 8.66562 2.66563V7.72188L11.2344 10.2906C11.3656 10.4219 11.3656 10.6344 11.2344 10.7656Z" fill="#777"/>
</svg>
