<svg width="16" height="12" viewBox="0 0 16 12" fill="none" xmlns="http://www.w3.org/2000/svg">
<path d="M7.84612 7.19381L9.42765 5.67382L14.963 0.138461C14.7815 0.0523074 14.5815 0 14.3692 0H1.38461C1.17231 0 0.972309 0.0523074 0.790771 0.138461L7.84612 7.19381Z" fill="#777"/>
<path d="M15.6153 11.2092C15.7015 11.0276 15.7538 10.8276 15.7538 10.6153V1.38461C15.7538 1.17231 15.7015 0.972309 15.6153 0.790771L10.4061 5.99998L15.6153 11.2092Z" fill="#777"/>
<path d="M0.138461 0.790771C0.0523074 0.972309 0 1.17231 0 1.38461V10.6153C0 10.8276 0.0523074 11.0276 0.138461 11.2092L5.34767 5.99998L0.138461 0.790771Z" fill="#777"/>
<path d="M9.7538 6.65234L8.17227 8.17234C8.08304 8.26157 7.96304 8.30772 7.84612 8.30772C7.7292 8.30772 7.6092 8.26157 7.51997 8.17234L5.99998 6.65234L0.790771 11.8615C0.972309 11.9477 1.17231 12 1.38461 12H14.3692C14.5815 12 14.7815 11.9477 14.963 11.8615L9.7538 6.65234Z" fill="#777"/>
</svg>
