<svg width="16" height="20" viewBox="0 0 16 20" fill="none" xmlns="http://www.w3.org/2000/svg">
<path d="M7.69231 0C11.9351 0 15.3846 3.36328 15.3846 7.5C15.3846 13.0312 8.28926 19.6094 7.98477 19.8867C7.90064 19.9609 7.79647 20 7.69231 20C7.58814 20 7.47997 19.9609 7.39984 19.8867C7.09535 19.6094 -1.90735e-06 13.0312 -1.90735e-06 7.5C-1.90735e-06 3.36328 3.44952 0 7.69231 0ZM7.69231 11.668C10.0481 11.668 11.9671 9.79688 11.9671 7.5C11.9671 5.20312 10.0481 3.33203 7.69231 3.33203C5.33654 3.33203 3.41747 5.20312 3.41747 7.5C3.41747 9.79688 5.33654 11.668 7.69231 11.668Z" fill="#777"/>
</svg>
