<svg width="30" height="30" viewBox="0 0 30 30" fill="none" xmlns="http://www.w3.org/2000/svg">
<path d="M15 30C23.2843 30 30 23.2843 30 15C30 6.71573 23.2843 0 15 0C6.71573 0 0 6.71573 0 15C0 23.2843 6.71573 30 15 30Z" fill="#F0F0F0"/>
<path d="M29.1 20.2C29.7 18.6 30 16.8 30 15C30 13.2 29.7 11.4 29.1 9.8H0.9C0.3 11.4 0 13.2 0 15C0 16.8 0.3 18.6 0.9 20.2L15 21.5L29.1 20.2Z" fill="#0052B4"/>
<path d="M15 30C21.4 30 26.9 25.9 29.1 20.2H0.900024C3.10002 25.9 8.60002 30 15 30Z" fill="#D80027"/>
</svg>
