<svg width="23" height="16" viewBox="0 0 23 16" fill="none" xmlns="http://www.w3.org/2000/svg">
<path d="M21.8373 1.37457C21.0218 0.403207 19.5006 0 16.614 0H6.11226C3.15235 0 1.61283 0.421535 0.797251 1.45704C0 2.47423 0 3.96793 0 6.02978V9.96105C0 13.9656 0.943871 16 6.11226 16H16.614C19.1249 16 20.5086 15.6518 21.4158 14.7904C22.3414 13.9107 22.7354 12.4628 22.7354 9.97022V6.02978C22.7262 3.85796 22.6621 2.3551 21.8373 1.37457ZM14.5888 8.54066L9.8236 11.0332C9.71363 11.0882 9.60367 11.1157 9.48454 11.1157C9.35624 11.1157 9.21879 11.079 9.10882 11.0057C8.88889 10.8774 8.75143 10.6392 8.75143 10.3826V5.41581C8.75143 5.15922 8.88889 4.92096 9.09966 4.79267C9.31959 4.65521 9.5945 4.64605 9.81443 4.76518L14.5796 7.2394C14.8179 7.3677 14.9737 7.61512 14.9737 7.89003C14.9828 8.16495 14.8362 8.41237 14.5888 8.54066Z" fill="white"/>
</svg>
